HIERARCHY
ROOT Hips
{
	OFFSET 0.000000 0.000000 0.000000
	CHANNELS 6 Xposition Yposition Zposition Zrotation Yrotation Xrotation 
	JOINT LeftUpLeg_virtual
	{
		OFFSET 0.000000 0.000000 0.000000
		CHANNELS 3 Zrotation Yrotation Xrotation
		JOINT LeftUpLeg
		{
			OFFSET 10.205400 -3.823500 0.155100
			CHANNELS 3 Zrotation Yrotation Xrotation
			JOINT LeftLeg
			{
				OFFSET 0.708757 -12.982077 0.567790
				CHANNELS 3 Zrotation Yrotation Xrotation
				JOINT LeftFoot
				{
					OFFSET -0.708756 -10.717838 -2.184338
					CHANNELS 3 Zrotation Yrotation Xrotation
					JOINT LeftToeBase
					{
						OFFSET 0.108149 -7.191104 7.560241
						CHANNELS 3 Zrotation Yrotation Xrotation
						End Site
						{
							OFFSET 0.000000 0.000000 0.000000
						}
					}
				}
			}
		}
	}
	JOINT RightUpLeg_virtual
	{
		OFFSET 0.000000 0.000000 0.000000
		CHANNELS 3 Zrotation Yrotation Xrotation
		JOINT RightUpLeg
		{
			OFFSET -10.205400 -3.823500 0.005500
			CHANNELS 3 Zrotation Yrotation Xrotation
			JOINT RightLeg
			{
				OFFSET -0.708756 -12.982134 0.610632
				CHANNELS 3 Zrotation Yrotation Xrotation
				JOINT RightFoot
				{
					OFFSET 0.708754 -10.717769 -1.945823
					CHANNELS 3 Zrotation Yrotation Xrotation
					JOINT RightToeBase
					{
						OFFSET -0.108140 -7.191069 7.372968
						CHANNELS 3 Zrotation Yrotation Xrotation
						End Site
						{
							OFFSET 0.000000 0.000000 0.000000
						}
					}
				}
			}
		}
	}
	JOINT Spine_virtual
	{
		OFFSET 0.000000 0.000000 0.000000
		CHANNELS 3 Zrotation Yrotation Xrotation
		JOINT Spine
		{
			OFFSET 0.000000 6.876099 0.125700
			CHANNELS 3 Zrotation Yrotation Xrotation
			JOINT Spine1
			{
				OFFSET 0.000000 8.022060 0.146608
				CHANNELS 3 Zrotation Yrotation Xrotation
				JOINT Spine2
				{
					OFFSET 0.000000 9.168068 0.167552
					CHANNELS 3 Zrotation Yrotation Xrotation
					JOINT Neck_virtual
					{
						OFFSET 0.000000 0.000000 0.000000
						CHANNELS 3 Zrotation Yrotation Xrotation
						JOINT Neck
						{
							OFFSET 0.000000 10.314075 0.188496
							CHANNELS 3 Zrotation Yrotation Xrotation
							JOINT Head
							{
								OFFSET 0.000000 7.643700 -2.377400
								CHANNELS 3 Zrotation Yrotation Xrotation
								End Site
								{
									OFFSET 0.000000 0.000000 0.000000
								}
							}
						}
					}
					JOINT LeftShoulder_virtual
					{
						OFFSET 0.000000 0.000000 0.000000
						CHANNELS 3 Zrotation Yrotation Xrotation
						JOINT LeftShoulder
						{
							OFFSET 4.392200 8.824978 0.174984
							CHANNELS 3 Zrotation Yrotation Xrotation
							JOINT LeftArm
							{
								OFFSET 8.771219 -2.981674 -0.026999
								CHANNELS 3 Zrotation Yrotation Xrotation
								JOINT LeftForeArm
								{
									OFFSET 8.512804 0.000000 -0.000000
									CHANNELS 3 Zrotation Yrotation Xrotation
									JOINT LeftHand
									{
										OFFSET 18.484802 0.000000 -0.000000
										CHANNELS 3 Zrotation Yrotation Xrotation
										End Site
										{
											OFFSET 0.000000 0.000000 0.000000
										}
									}
								}
							}
						}
					}
					JOINT RightShoulder_virtual
					{
						OFFSET 0.000000 0.000000 0.000000
						CHANNELS 3 Zrotation Yrotation Xrotation
						JOINT RightShoulder
						{
							OFFSET -4.392200 8.824993 0.141379
							CHANNELS 3 Zrotation Yrotation Xrotation
							JOINT RightArm
							{
								OFFSET -8.771282 -2.981682 -0.094208
								CHANNELS 3 Zrotation Yrotation Xrotation
								JOINT RightForeArm
								{
									OFFSET -8.494598 0.000000 0.000000
									CHANNELS 3 Zrotation Yrotation Xrotation
									JOINT RightHand
									{
										OFFSET -18.483803 0.000000 0.000001
										CHANNELS 3 Zrotation Yrotation Xrotation
										End Site
										{
											OFFSET 0.000000 0.000000 0.000000
										}
									}
								}
							}
						}
					}
				}
			}
		}
	}
}
MOTION
Frames: 8
Frame Time: 0.033333
-0.386256 36.581718 4.881270 -179.874384 -24.965976 179.556002 -2.579305 -1.344906 12.954898 -11.899444 2.492893 -17.139041 7.404590 3.999457 15.605903 1.781048 -3.800437 7.039120 0.000000 0.000000 0.000000 1.528083 -1.095160 11.399260 -2.094081 -11.055933 -18.628801 -1.814092 -0.052918 12.969362 11.054648 3.040723 16.322554 0.000000 0.000000 0.000000 -0.272587 1.757423 1.691508 6.051933 -0.121148 -7.397802 -1.352481 -2.364247 6.436863 -0.014388 0.055765 -0.018773 -1.716477 -0.526991 6.794952 -2.909471 -10.336521 15.167835 0.000000 0.000000 0.000000 0.222236 -0.088569 3.779322 -4.295955 -0.841564 3.663324 -54.805230 27.131268 38.380209 -178.909251 -87.317589 -164.423335 0.000000 0.000000 0.000000 -4.505092 1.578668 2.688797 20.377200 -0.467849 5.179427 55.777374 -18.618510 12.532352 -163.360968 75.439795 -169.675532 0.000000 0.000000 0.000000 
-0.788963 36.555927 5.170338 -179.816573 -26.238056 179.507753 -2.617301 -1.640586 12.709721 -12.487402 2.177197 -17.117103 7.267878 5.548840 15.531106 1.902864 -4.275887 7.491493 0.000000 0.000000 0.000000 1.319680 -1.543579 11.186836 -3.147902 -11.036545 -18.578268 -2.211809 -1.476618 14.112653 9.886753 2.074132 17.029034 0.000000 0.000000 0.000000 -0.201725 1.387459 1.537930 6.008192 0.340818 -7.544694 -1.393144 -2.412307 6.353463 -0.039405 0.104672 -0.010641 -1.861309 -0.265954 6.738181 -2.515847 -10.644174 15.364289 0.000000 0.000000 0.000000 0.166672 0.064756 3.826687 -4.126592 -0.552292 3.502823 -54.960446 27.556637 38.555912 -179.922332 -87.278036 -163.409120 0.000000 0.000000 0.000000 -4.558952 1.655477 2.623186 20.018397 0.314479 4.664601 54.651216 -14.096306 12.829967 -165.659681 73.594742 -172.134154 0.000000 0.000000 0.000000 
-1.177465 36.515705 5.357516 -179.863429 -27.900127 179.603198 -2.715647 -2.086520 12.433142 -13.077097 2.370072 -17.142059 6.824632 5.933484 15.474953 2.283523 -4.600325 7.859753 0.000000 0.000000 0.000000 1.161440 -1.878350 11.186553 -4.130100 -10.286063 -18.567302 -2.595529 -0.538366 15.331598 9.002291 1.466214 16.128938 0.000000 0.000000 0.000000 -0.243656 1.009951 1.235520 5.904490 0.621761 -7.707668 -1.427276 -2.237848 6.289275 -0.032391 0.006754 -0.045436 -1.854477 -0.212329 6.673483 -1.854211 -10.849414 15.501007 0.000000 0.000000 0.000000 0.226303 0.076893 3.821915 -3.899205 -0.416806 3.268895 -55.156738 28.003260 38.661927 -176.063589 -87.148235 -167.262713 0.000000 0.000000 0.000000 -4.645386 1.703546 2.495849 19.625172 0.963358 4.164249 53.515389 -8.845784 12.913681 -167.065430 72.075926 -173.639432 0.000000 0.000000 0.000000 
-1.566726 36.483234 5.444190 179.930296 -29.612446 179.826218 -2.946993 -2.424674 12.204433 -13.631143 2.371562 -17.068824 6.708001 6.276418 15.664936 2.510029 -5.204810 8.037105 0.000000 0.000000 0.000000 1.066492 -2.077878 11.239065 -4.830501 -8.755935 -18.732052 -3.077666 1.566521 16.797971 8.501431 1.072695 14.796143 0.000000 0.000000 0.000000 -0.418479 0.911094 0.729787 5.684132 0.960847 -7.693421 -1.458337 -2.422859 6.214012 0.012622 -0.118621 -0.026354 -1.848870 -0.297403 6.624433 -1.105798 -11.091995 15.659568 0.000000 0.000000 0.000000 0.247735 0.120791 3.795245 -3.674909 -0.374265 3.078597 -55.370892 28.310222 38.662077 -174.736552 -87.139874 -168.570394 0.000000 0.000000 0.000000 -4.712160 1.660505 2.388815 19.145806 1.503134 3.651899 52.376237 -3.420485 12.802864 -168.512487 70.779652 -175.079154 0.000000 0.000000 0.000000 
-1.945910 36.471703 5.452045 179.999745 -31.194061 179.860300 -3.047341 -2.592587 12.020826 -13.992185 2.087517 -16.848888 6.536629 6.147466 15.824182 3.050060 -5.599655 8.299741 0.000000 0.000000 0.000000 1.192891 -1.920716 11.183002 -5.020193 -7.208213 -18.947145 -3.332737 3.467260 18.819596 8.183982 0.827584 12.375008 0.000000 0.000000 0.000000 -0.456110 0.791708 0.350405 5.565873 0.887034 -7.701236 -1.423199 -2.194238 6.154129 -0.020703 -0.078557 -0.042703 -1.753476 -0.139990 6.616761 -0.326386 -11.369956 15.694637 0.000000 0.000000 0.000000 0.307936 0.090949 3.765679 -3.427941 -0.328078 2.850217 -55.547169 28.506034 38.798862 -173.807195 -87.140557 -169.461433 0.000000 0.000000 0.000000 -4.661253 1.842423 2.283878 18.709201 1.784105 3.131297 51.369122 1.620046 12.566448 -169.208074 69.592435 -175.778415 0.000000 0.000000 0.000000 
-2.307162 36.482700 5.408591 -179.990607 -33.015024 179.908139 -3.291955 -2.765596 11.821983 -14.214951 1.639793 -16.536776 6.450057 5.810876 15.866155 3.570952 -6.052384 8.586551 0.000000 0.000000 0.000000 1.083487 -1.931259 10.955530 -4.685140 -6.066958 -19.416638 -3.351291 4.206752 20.714343 8.277277 0.821725 11.222430 0.000000 0.000000 0.000000 -0.542008 0.711613 -0.066885 5.345518 0.864643 -7.575080 -1.365895 -2.156273 6.163331 -0.017324 -0.098618 -0.028174 -1.679708 -0.128294 6.627239 0.450317 -11.655715 15.676937 0.000000 0.000000 0.000000 0.381511 0.163390 3.770561 -3.210678 -0.528732 2.843460 -55.730368 28.457594 38.903730 -176.481255 -87.232745 -166.735559 0.000000 0.000000 0.000000 -4.614604 1.792413 2.277612 18.214668 1.998682 2.548273 50.455297 5.815063 12.296083 -169.575456 68.566712 -176.085009 0.000000 0.000000 0.000000 
-2.629838 36.509579 5.335087 -179.923042 -34.934748 179.841954 -3.470182 -2.831826 11.652237 -14.254833 1.121315 -16.102190 6.398934 5.546056 15.742575 3.955957 -6.574677 8.927301 0.000000 0.000000 0.000000 0.919954 -1.930351 10.730474 -3.898306 -5.295636 -20.008302 -3.339434 4.414728 22.414249 8.161488 0.554199 11.160325 0.000000 0.000000 0.000000 -0.613266 0.560349 -0.351391 5.127616 0.807292 -7.385012 -1.293862 -2.061798 6.212603 -0.011473 -0.036908 -0.007598 -1.608070 -0.091250 6.650850 1.226082 -11.891698 15.673631 0.000000 0.000000 0.000000 0.409165 0.118745 3.731516 -2.989418 -0.587807 2.667467 -55.965604 28.503771 38.949598 -173.879350 -87.273651 -169.281157 0.000000 0.000000 0.000000 -4.584963 1.771165 2.288012 17.759100 1.912880 1.795351 49.835072 8.920892 11.767400 -170.299156 67.792769 -176.707458 0.000000 0.000000 0.000000 
-2.928035 36.541492 5.218150 -179.980812 -36.936843 179.838143 -3.690591 -2.703737 11.501124 -14.185241 0.593167 -15.520546 6.336761 5.226286 15.586181 4.118317 -7.186853 9.269356 0.000000 0.000000 0.000000 0.720744 -1.755853 10.520722 -2.913918 -4.909203 -20.691093 -3.439764 4.647831 23.637488 8.176992 0.417396 11.180572 0.000000 0.000000 0.000000 -0.738974 0.649050 -0.606326 4.811505 0.660643 -7.127772 -1.235156 -2.006802 6.275933 0.015379 -0.006386 -0.009248 -1.545003 -0.027584 6.681408 1.889826 -12.111624 15.625034 0.000000 0.000000 0.000000 0.449543 0.165036 3.772515 -2.765665 -0.801474 2.623205 -56.257693 28.587328 38.847797 -173.899540 -87.337144 -169.206435 0.000000 0.000000 0.000000 -4.534456 1.798426 2.285205 17.355463 1.684038 1.377568 49.367549 11.151969 11.072810 -170.436169 67.240330 -176.743685 0.000000 0.000000 0.000000 
